<?xml version="1.0" standalone="no"?>
<!DOCTYPE svg PUBLIC "-//W3C//DTD SVG 20010904//EN"
 "http://www.w3.org/TR/2001/REC-SVG-20010904/DTD/svg10.dtd">
<svg version="1.0" xmlns="http://www.w3.org/2000/svg"
 width="1024.000000pt" height="1024.000000pt" viewBox="0 0 1024.000000 1024.000000"
 preserveAspectRatio="xMidYMid meet">

<g transform="translate(0.000000,1024.000000) scale(0.200000,-0.200000)"
fill="#000000" stroke="none" fill-opacity="">
<path d="M0 5120 l0 -5120 5120 0 5120 0 0 5120 0 5120 -5120 0 -5120 0 0
-5120z m7734 3078 c31 -44 21 -62 -84 -153 l-100 -88 0 -373 0 -372 -50 21
-50 21 0 319 0 320 -47 -44 c-27 -25 -104 -89 -173 -144 -69 -55 -188 -152
-265 -215 -77 -64 -216 -177 -310 -251 -93 -75 -196 -157 -227 -184 l-58 -47
-48 51 -48 51 55 48 c60 51 238 193 386 307 50 38 282 224 517 412 456 365
466 372 502 321z m-405 -693 c-17 -36 -59 -95 -93 -132 -69 -75 -221 -200
-329 -269 -40 -26 -95 -62 -124 -80 -65 -43 -228 -121 -269 -129 -26 -5 -32
-2 -42 20 -7 14 -12 28 -12 30 0 2 47 28 105 59 347 184 618 394 681 530 15
32 39 62 66 83 l43 32 3 -40 c2 -28 -6 -57 -29 -104z m-792 98 c38 -49 43 -42
-165 -201 -434 -332 -1074 -815 -1447 -1092 -329 -244 -380 -283 -412 -312
l-31 -30 -56 16 -56 17 72 57 c87 69 436 331 763 572 130 96 301 225 380 285
78 61 248 190 376 287 129 97 305 231 393 297 87 67 161 121 164 121 3 0 11
-8 19 -17z m862 -502 c81 -25 139 -60 190 -116 186 -202 120 -546 -127 -667
-63 -31 -73 -33 -177 -33 -106 0 -114 2 -180 34 -88 43 -152 108 -195 195 -80
162 -34 397 100 509 106 89 256 120 389 78z m-1946 -57 c42 -4 77 -9 77 -13
-1 -3 -31 -28 -68 -56 -37 -27 -108 -85 -159 -127 -91 -76 -95 -78 -146 -78
-257 0 -602 -82 -859 -203 -496 -235 -882 -698 -1042 -1253 -51 -175 -61 -252
-61 -497 l0 -227 -147 0 -146 0 -7 87 c-21 252 43 641 152 913 116 293 266
528 472 742 141 146 234 225 402 337 249 168 443 253 729 320 282 66 484 80
803 55z m726 -112 c132 -134 130 -213 -7 -278 -31 -15 -95 -59 -142 -99 -47
-39 -134 -109 -195 -156 -60 -46 -168 -131 -240 -187 l-130 -104 -29 33 -29
33 28 21 c15 11 130 99 254 195 125 96 259 200 299 229 40 30 72 60 72 66 0 6
-13 23 -28 38 l-28 27 -135 -108 c-272 -216 -503 -397 -510 -400 -5 -2 -30 18
-58 44 l-50 47 191 151 c105 83 292 233 417 333 124 100 232 182 240 182 7 1
43 -29 80 -67z m360 -263 c141 -96 188 -140 206 -191 23 -65 102 -175 174
-240 l62 -56 -31 -49 c-41 -66 -59 -165 -42 -229 7 -26 11 -48 9 -50 -1 -2
-23 31 -47 72 -103 175 -317 395 -512 528 l-117 79 69 49 c74 51 140 112 140
128 0 17 11 12 89 -41z m-3510 -186 c62 -58 34 -143 -46 -143 -97 0 -115 129
-23 163 28 10 40 7 69 -20z m2124 -320 c79 -81 177 -217 177 -246 0 -2 -27
-25 -59 -50 l-59 -47 -42 71 c-23 39 -78 108 -121 152 -43 45 -79 85 -79 88 0
10 102 89 115 89 6 0 37 -26 68 -57z m2397 -65 c0 -150 -50 -222 -155 -223
l-50 0 0 40 c0 40 0 40 42 43 59 4 73 27 73 117 l0 70 38 21 c20 12 40 22 45
23 4 1 7 -40 7 -91z m-296 28 c18 -8 41 -24 50 -37 16 -23 15 -24 -1 -27 -39
-8 -81 -34 -92 -58 -6 -14 -11 -67 -11 -119 0 -52 -3 -95 -7 -95 -5 0 -26 10
-48 23 -78 43 -117 189 -69 254 49 66 111 87 178 59z m-2334 -249 c36 -41 73
-88 83 -105 l18 -31 -38 -6 c-21 -3 -60 -9 -86 -13 -28 -5 -50 -5 -54 1 -6 10
-138 97 -147 97 -15 0 -3 -49 19 -82 14 -20 25 -41 25 -45 0 -4 -27 -16 -60
-26 -52 -15 -63 -15 -83 -3 -12 7 -47 22 -77 31 -30 10 -59 21 -63 25 -12 10
98 104 227 194 l109 76 31 -19 c17 -10 60 -53 96 -94z m2910 15 c25 -31 26
-83 1 -113 -26 -32 -105 -34 -127 -4 -37 50 -24 113 27 138 39 18 74 11 99
-21z m-5120 3 c34 -37 33 -90 -4 -121 -56 -49 -136 -13 -136 61 0 76 89 114
140 60z m1590 -31 c30 -8 60 -17 67 -19 6 -2 -43 -57 -109 -122 -90 -89 -226
-250 -253 -300 -1 -2 -28 2 -59 9 -51 10 -57 13 -52 32 3 12 9 38 12 59 l7 38
41 -6 c41 -6 86 9 93 30 2 6 -17 21 -42 33 l-45 22 26 53 27 54 48 -10 c42 -8
52 -7 69 8 25 22 16 41 -26 55 -39 13 -39 11 -18 53 32 62 32 62 214 11z
m2747 -167 c28 -19 71 -39 96 -47 l47 -13 -1 -421 -2 -421 -13 160 c-25 278
-70 481 -158 708 -14 37 -24 67 -22 67 2 0 26 -15 53 -33z m-2552 -64 c10 -6
-20 -23 -96 -57 -60 -27 -112 -46 -114 -44 -3 3 22 35 55 71 l61 66 40 -14
c22 -8 46 -18 54 -22z m2913 -120 c23 -71 48 -156 57 -190 43 -172 74 -520 60
-663 l-7 -70 -120 0 c-112 0 -119 1 -113 19 30 95 37 193 42 604 5 397 6 427
23 427 13 0 26 -29 58 -127z m-1763 92 c279 -42 564 -139 820 -279 220 -119
243 -165 118 -226 -110 -54 -270 -227 -342 -368 l-22 -43 39 25 c77 48 388
188 430 193 67 9 99 -30 69 -84 -21 -38 -200 -172 -347 -260 -59 -36 -250
-110 -345 -134 -70 -18 -117 -23 -210 -23 -195 1 -321 47 -432 160 -102 104
-147 225 -145 390 1 107 23 183 82 280 21 35 36 64 32 64 -22 0 -118 -67 -162
-112 -228 -231 -167 -633 128 -852 102 -76 220 -120 357 -133 l69 -6 -64 -24
c-248 -93 -610 -135 -871 -102 l-87 11 51 62 c29 34 86 107 128 161 42 55 95
123 117 151 l41 50 -112 17 c-183 28 -269 36 -522 47 -132 6 -251 13 -264 16
l-24 5 22 23 c27 29 28 81 2 96 -28 14 -52 12 -73 -7 -17 -15 -18 -14 -18 23
1 21 7 68 15 104 19 87 20 83 -20 77 l-36 -6 23 41 c41 72 95 126 131 130 28
3 36 11 66 66 l33 64 -111 -57 c-561 -287 -936 -799 -977 -1332 -3 -51 -11
-93 -16 -93 -24 0 -339 -259 -357 -294 -29 -53 -138 -79 -219 -52 -147 49
-226 222 -162 351 26 52 72 95 276 257 162 129 403 323 456 369 36 30 61 66
103 147 185 360 549 693 1006 923 187 93 477 174 709 198 136 14 483 6 615
-14z m-3095 -135 c10 -5 23 -24 29 -41 14 -42 -12 -100 -51 -113 -57 -20 -128
43 -114 100 14 55 83 82 136 54z m5390 0 c26 -14 43 -71 31 -103 -34 -89 -161
-66 -161 29 0 68 69 107 130 74z m-5430 -488 c44 -55 6 -136 -65 -136 -91 0
-117 123 -33 158 39 17 74 9 98 -22z m5460 28 c22 0 50 -46 50 -80 0 -45 -22
-77 -58 -85 -68 -15 -124 49 -100 115 11 33 60 64 86 55 8 -3 18 -5 22 -5z
m-3578 -587 c-18 -3 -22 -9 -16 -21 4 -9 8 -26 8 -38 1 -21 1 -21 71 -3 74 18
175 31 175 23 0 -3 -20 -13 -45 -24 -43 -18 -57 -41 -34 -55 6 -4 7 -19 4 -35
l-6 -28 93 38 c149 60 150 60 98 5 -70 -73 -409 -380 -423 -383 -7 -1 -44 36
-82 84 -39 47 -90 103 -115 124 -56 47 -201 140 -217 140 -33 0 -3 22 110 78
139 71 243 101 337 100 36 0 55 -3 42 -5z m-1597 -89 c-16 -14 -77 -62 -135
-107 -58 -44 -134 -105 -169 -134 l-64 -52 -53 156 c-30 86 -54 157 -54 159 0
2 114 4 253 4 l252 -1 -30 -25z m5225 15 c0 -6 -21 -51 -46 -100 -44 -86 -49
-91 -117 -131 -149 -87 -267 -120 -432 -120 -131 0 -194 14 -391 88 -308 116
-578 112 -897 -13 -49 -19 -90 -33 -92 -31 -2 2 102 74 230 161 l235 157 755
0 c539 0 755 -3 755 -11z m-1203 -404 c35 -8 102 -31 148 -50 229 -95 477
-119 714 -69 21 4 10 -10 -54 -72 -116 -111 -103 -106 -267 -106 -188 -1 -272
19 -472 113 -208 97 -264 118 -391 144 l-110 23 42 11 c120 33 265 35 390 6z
m-1657 -21 c0 -3 -19 -31 -43 -62 -53 -70 -61 -82 -50 -82 12 0 183 108 211
133 60 55 -17 -80 -93 -161 -66 -71 -287 -226 -299 -210 -2 2 0 77 3 168 l6
165 125 26 c147 32 140 31 140 23z m-776 -209 c94 -20 187 -51 308 -106 l98
-44 0 -107 c0 -69 4 -108 10 -108 12 0 141 69 208 111 42 26 44 27 95 13 88
-23 276 -18 382 10 86 23 120 37 300 121 155 72 205 90 320 110 207 38 395 5
625 -110 58 -29 135 -64 173 -79 86 -34 282 -86 325 -86 23 0 32 -4 30 -12 -9
-27 -201 -178 -225 -178 -44 0 -198 57 -322 120 -186 93 -251 111 -410 117
-214 9 -299 -12 -612 -153 -251 -112 -306 -127 -479 -127 -175 0 -247 20 -510
148 -107 52 -220 102 -250 111 -38 11 -107 18 -220 21 -152 4 -173 3 -261 -20
-119 -31 -221 -73 -330 -137 l-84 -49 -18 23 c-10 12 -32 46 -48 74 l-29 52
112 74 c123 81 262 153 346 181 137 44 334 57 466 30z m-1062 -450 c105 -215
283 -415 472 -529 l56 -33 -69 -51 c-151 -113 -241 -297 -241 -495 l0 -81 -31
30 c-153 145 -286 397 -334 636 -18 90 -20 324 -4 414 10 60 54 203 72 239 9
18 11 17 25 -15 9 -19 33 -71 54 -115z m1083 -5 c38 -12 135 -55 215 -95 252
-126 375 -159 595 -158 205 0 290 23 571 156 200 95 275 117 424 124 160 8
238 -13 438 -114 83 -42 152 -80 152 -83 0 -4 -29 -30 -65 -58 -254 -204 -634
-377 -990 -450 -263 -55 -622 -74 -830 -44 -368 53 -695 176 -980 367 -100 67
-255 197 -255 213 0 10 138 88 200 113 127 51 177 59 320 55 104 -3 151 -9
205 -26z"/>
<path d="M7174 6966 c-134 -62 -199 -202 -159 -342 22 -78 105 -163 180 -185
155 -44 291 19 356 167 17 38 21 61 17 118 -6 88 -31 140 -95 195 -87 74 -202
92 -299 47z m147 -166 c23 0 59 -54 59 -87 0 -64 -34 -102 -90 -102 -99 -1
-129 137 -40 182 19 9 41 15 48 12 8 -3 18 -5 23 -5z"/>
<path d="M7001 6916 c-7 -8 -8 -17 -3 -19 4 -3 13 3 20 14 14 22 0 26 -17 5z"/>
<path d="M4698 5339 c-12 -6 -18 -22 -18 -45 0 -28 5 -36 26 -45 58 -21 101
51 52 85 -26 18 -36 19 -60 5z"/>
<path d="M5930 5262 c-49 -26 -85 -96 -76 -145 22 -119 166 -161 245 -72 39
45 47 89 26 143 -32 78 -123 113 -195 74z"/>
<path d="M4437 5252 c-37 -41 -12 -86 45 -80 25 2 35 9 42 30 18 53 -50 91
-87 50z"/>
<path d="M4765 5120 c-34 -38 5 -96 57 -82 33 8 40 67 10 90 -23 17 -46 15
-67 -8z"/>
<path d="M4527 5042 c-20 -22 -22 -63 -5 -80 7 -7 24 -12 38 -12 35 0 50 17
50 57 0 49 -51 71 -83 35z"/>
<path d="M6285 4998 c-47 -50 -123 -173 -112 -184 2 -2 25 27 51 65 26 38 65
90 88 116 59 66 38 69 -27 3z"/>
<path d="M4280 4960 c-11 -11 -20 -27 -20 -35 0 -20 36 -55 56 -55 34 0 54 20
54 56 0 28 -5 36 -26 44 -35 14 -41 13 -64 -10z"/>
<path d="M4846 4898 c-21 -30 -20 -51 3 -72 26 -24 62 -17 80 15 13 24 13 29
-2 53 -22 33 -60 34 -81 4z"/>
<path d="M4607 4833 c-4 -3 -7 -21 -7 -39 0 -57 49 -84 83 -46 22 24 21 55 -1
75 -19 17 -63 23 -75 10z"/>
<path d="M4372 4774 c-43 -30 -16 -94 40 -94 58 0 75 80 21 101 -32 12 -35 12
-61 -7z"/>
</g>
</svg>
